<svg xmlns="http://www.w3.org/2000/svg" xml:space="preserve" width="640.323" height="493.968">
  <path fill="#191919" d="M183.746 475.183c14.333.047 42.648 1.69 42.728 2.233-3.871 1.197-7.686 2.629-11.622 3.549-14.31 3.346-31.046 4.23-46.506 4.483-.28.005-.342-.393-.075-.477 8.821-2.784 9.52-6.194 9.452-6.609-2.337-.427-14.985-2.075-37.416 1.602-7.972 1.307-15.962 2.588-24.172 3.956 1.547-8.35 9.147-11.689 13.755-17.448-2.887-2.892-6.067-2.834-9.265-2.262-4.327.774-8.039 2.848-11.019 6.071-3.741 4.046-7.368 8.197-11.045 12.303 1.591-8.104 8.473-16.128 12.493-20.46 7.18-7.737 18.043-9.571 29.282-12.056 10.876-2.405 17.267-5.501 21.999-7.063 1.433-.473 2.909-.816 4.489-.914-10.515 9.886-28.397 13.402-31.05 18.973 7.375 3.872 27.812 4.422 42.034 5.379 14.501.976 28.694-4.028 42.323-8.5.15.425-4.989 5.027-36.418 17.018-.118.045-.094.221.033.222zm227.699-20.19c1.253-.822 2.639-1.497 3.736-2.491 6.392-5.797 12.7-11.686 19.079-17.498a19.122 19.122 0 0 1 3.529-2.545c8.053-4.496 12.539-11.613 14.979-20.237.343-1.212.439-2.494.649-3.744-23.05 23.706-33.703 20.051-33.855 19.789 3.744-5.055 7.463-10.117 5.162-17.309-.641 1.043-1.131 1.692-1.469 2.412-2.956 6.308-7.849 10.725-13.913 13.84a112.155 112.155 0 0 1-11.962 5.297c-9.239 3.452-18.557 6.693-27.851 9.997-.452.161-.979.108-2.007.206 1.181-7.639 6.08-14.129 5.682-22.208l-24.703 8.285-.461-1.062c10.068-6.31 20.38-12.278 29.314-20.173-5.093 1.913-9.864 4.663-15.003 6.049-18.128 4.89-34.809 12.487-49.425 24.42-1.645 1.343-3.727 2.151-5.606 3.207 4.497-12.026 12.299-22.325 13.872-36.27-3.546 1.57-6.887 2.375-9.375 4.289-5.616 4.321-11.759 5.614-18.521 4.552-2.139-.336-4.18-1.303-6.266-1.981 1.048-1.94 1.932-3.995 3.183-5.794 1.846-2.656 3.952-5.13 6.471-8.349-1.605.155-2.108.202-2.61.252-7.239.715-14.468 1.582-21.723 2.056-2.308.151-4.731-.571-7.015-1.205-2.254-.626-1.995-2.232-.589-3.479.97-.86 2.355-1.252 3.557-1.849 1.582-.786 3.166-1.567 4.749-2.35-9.041-2.693-17.892-3.352-26.855-2.498-6.047.576-11.975 1.62-17.287 4.801-2.637 1.579-5.055 3.421-6.29 6.902 10.917-2.942 20.881-9.014 33.503-6.083-1.804 2.632-3.028 4.872-4.688 6.719-1.798 2-3.996 3.643-6.032 5.427-7.103 6.224-9.66 14.049-8.202 23.553.455-.257.68-.311.776-.452.231-.342.443-.71.59-1.094 2.316-6.042 6.81-10.113 12.65-12.214 5.615-2.02 11.571-3.109 17.399-4.514 2.625-.633 3.361.887 2.437 2.966-1.51 3.396-3.128 6.795-5.148 9.902-3.344 5.143-7.181 9.965-10.53 15.105-1.385 2.126-2.319 4.654-2.961 7.128-.641 2.47.566 4.3 3.066 5.167 8.213-14.934 27.051-24.711 42.79-21.802-10.567 14.016-9.545 31.351-14.49 47.24 17.652-7.417 31.847-20.858 49.705-28.581 0 1.652-.026 2.891.005 4.128.131 5.301.036 10.623.496 15.896.366 4.188 1.514 8.272 5.419 11.752-.078-1.759-.101-2.853-.18-3.943-.248-3.425-.756-6.85-.73-10.272.06-8.043 6.673-14.405 14.223-13.961-.233 2.777-.676 5.557-.645 8.331.037 3.276 1.403 4.052 4.443 2.678 1.692-.765 3.308-1.767 4.814-2.86 3.032-2.2 5.903-4.625 8.963-6.784 1.953-1.378 4.126-2.443 6.911-4.061-1.764 9.788-8.421 16.083-12.016 24.315 5.679-.904 10.218-3.196 14.172-6.436 4.583-3.755 8.955-7.786 13.234-11.889 5.345-5.124 12.286-7.347 18.659-11.312l-.998 10.137 1.189.502zm-50.884-215.16c1.028-5.911 2.397-11.763 3.612-17.642-1.172.865-6.588 14.543-7.902 20.493-2.597 11.754-4.721 23.622-6.721 35.496-.877 5.211 1.516 9.211 6.031 12.074 5.328 3.378 10.11 7.358 12.662 13.409.236.559.654 1.071 1.08 1.516 1.629 1.703 3.285 1.983 4.436-.402 1.262-2.613 2.258-5.353 3.41-8.021 1.602-3.71 3.03-7.517 4.929-11.07 1.645-3.079 4.407-4.539 8.109-3.924 2.779.462 4.997-.637 6.855-3.199-2.189-.401-6.047-1.478-6.103-1.674l14.825-5.5c-.058-.299-8.668-1.752-19.386 1.029-7.416 1.924-14.327 5.558-21.538 8.225-7.695 2.846-10.678.846-9.691-7.275 1.364-11.231 3.452-22.379 5.392-33.535zm96.284 126.115-1.286 6.835-4.538-4.062c-3.608 14.031-28.58 23.305-31.15 24.676 2.007.646 21.274-.68 35.348-12.916.083 9.21-6.586 14.518-10.276 21.821 6.496-1.486 24.004-14.051 11.902-36.354zM401.792 243.46c-6.607-1.022-13.336-2.594-20.067-3.635.003-.531 10.121-1.838 15.969-2.679-4.711-4.542-10.743-5.689-13.919-11.737 0 0 13.711-.584 13.932-1.138l-10.604-10.051c3.742-.345 6.957.041 8.934-3.338l-10.071-9.008c.893 4.502 1.114 5.88 1.114 5.88s-4.895 1.849-4.833 3.014c.096 1.795.992 5.433 1.512 7.624l-7.626-1.899c1.664 3.906 4.494 10.558 4.84 11.371a.069.069 0 0 1-.052.095c-.601.088-4.129.646-5.003 1.729 1.309 1.05 3.866 3.146 5.226 4.237l-8.09 5.546c12.698 7.187 22.571 8.437 28.738 3.989zm-11.578-51.271c-.847.225-2.413.707-3.134 1.355 2.882 5.14 7.531 7.358 12.289 5.55l-3.895-6.046c1.811-.389 4.729-1.69 4.787-2.039l-10.759-5.26c.212 1.72.857 4.519 1.144 5.721a.598.598 0 0 1-.432.719zm169.346-13.677c1.706.362 3.169.346 4.522-.047 5.822-1.691 7.368-6.305 4.223-11.398-.831-1.345-.946-3.332-.848-4.992.129-2.181 1.579-4.283 1.746-6.461.015-.193-.227-.293-.351-.145-2.056 2.466-9.72 7.506-5.367 15.939 1.053 2.04.867 3.351-1.389 4.764-.986.618-1.774 1.306-2.62 1.985-.129.106-.079.32.084.355zm-60.843-24.237c2.01 1.48 3.532 3.622 5.307 5.5 3.14-2.555 7.576-4.616 8.346-10.547-3.202.599-5.905 1.114-8.613 1.607-2.365.431-3.452-.511-3.474-2.977-.039-4.278.793-8.254 3.279-11.934-4.528 1.137-7.026 4.308-8.329 8.593-1.245 4.088.001 7.194 3.484 9.758zm-66.686-9.778c-5.074-11.996 1.008-34.084 11.475-41.818 5.214-3.852 9.202-3.323 13.092 1.871 4.346 5.802 6.864 12.293 7.07 20.958-.312 9.554-5.133 17.804-14.837 22.8-2.554 1.315-5.745 1.741-8.677 1.886-3.932.196-6.618-2.138-8.123-5.697zm2.7-6.664c.82 6.298 5.311 9.411 11.345 7.453 2.792-.906 5.617-2.374 7.833-4.279 9.215-7.919 9.195-25.842.206-34.285-1.994-1.873-4.365-2.453-6.526-.929-2.326 1.639-4.604 3.627-6.22 5.94-4.721 6.758-6.442 14.535-6.659 22.672 0 1.144-.125 2.303.021 3.428zm18.228-3.329c2.755-2.911 3.859-6.543 4.189-10.484-.111-2.863-.411-5.755-3.39-7.133-3.055-1.414-5.93-.324-8.423 1.553-3.791 2.855-5.273 9.119-3.471 13.898 1.979 5.25 7.18 6.302 11.095 2.166zm143.515 29.529c.687-.084 1.302-.115 1.898-.238 8.153-1.681 13.198 2.132 13.121 10.529-.095 10.442-4.921 18.719-13.021 25.08-1.398 1.098-3.354 1.664-5.144 2.053-4.877 1.058-8.384-1.276-9.389-6.174-1.273-6.206.348-11.901 2.645-17.515 1.042-2.546 2.602-5.034 3.75-7.537-5.709 4.071-10.76 16.148-9.543 24.766.642 4.546 2.853 9.412 8.021 10.806 5.373 1.45 9.509-1.142 12.942-4.243 8.258-7.459 12.509-16.427 13.06-27.526.186-3.755-.912-7.873-3.499-10.927-4.182-4.94-12.455-4.498-14.841.926zm-5.515 26.918c2.532 1.418 5.073.757 7.371-.691 3.811-2.401 5.623-5.977 5.753-9.411.011-4.765-1.989-7.668-5.249-8.652-2.904-.876-6.054.305-7.842 3.602-1.355 2.498-2.304 4.998-2.815 7.79-.492 2.693.038 5.826 2.782 7.362zm48.427-46.967c-2.403 14.088-7.808 27.136-13.9 39.942-.983 2.067-1.888 4.178-2.997 6.175-4.587 8.261-7.036 17.037-7.061 26.54-.018 6.557-.897 13.135-.59 19.666.707 15.062-4.905 27.306-15.238 37.895-4.861 4.982-9.318 10.375-13.742 15.759-1.517 1.845-2.378 4.229-3.683 6.633l6.566 1.404-11.232 9.71 6.473 3.261-8.582 5.995 6.29 7.051-5.26-1.813c.837 8.1 6.187 13.858 8.954 21.172l-10.702-6.254c1.268 5.493 3.017 15.314 2.56 15.601-1.185-.942-7.258-6.517-9.322-8.081-3.818-2.891-7.433-2.149-8.89 2.381-1.411 4.384-1.842 9.109-2.437 13.719-.316 2.448-.049 4.972-.055 7.461-.467.191-6.882-5.531-10.091-8.749l-15.352 21.707-3.405-8.213c-2.653 2.594-5.308 4.287-6.683 6.706-3.775 6.642-8.61 12.095-14.689 16.739-2.79 2.132-5.094 5.298-6.75 8.452-9.634 18.342-22.77 34.006-36.568 49.254-11.89 13.139-23.483 26.547-35.167 39.872h-17.187c2.912-6.398 5.831-12.793 8.712-19.205 1.321-2.939 2.486-5.947 3.789-8.894.521-1.177 1.223-2.275 2.472-3.231l.574 12.143c.01.209.189.37.397.348.886-.094 3.126-1.1 6.387-6.879 3.625-6.424 4.527-9.402 7.952-15.936 2.302-4.39 4.621-8.771 7.313-13.878.951 5.053 3.057 13.455 3.351 13.629 12.526-11.542 23.535-39.437 25.443-43.208l1.982 5.823c4.485-3.554 6.208-8.4 7.909-13.232 1.706-4.846 3.307-9.73 4.954-14.597.424-.08 5.372 4.144 7.837 6.781l3.76-13.633c.162.034.743 5.018.931 8.608 1.741-1.797 3.156-2.795 3.951-4.156 4.502-7.702 5.98-16.256 7.091-25.812-2.88 4.069-5.105 7.527-7.645 10.738-5.872 7.425-13.503 11.914-22.97 13.083-10.33 1.275-18.716-6.336-19.683-17.559-1.257-14.579 4.286-26.842 12.559-38.262 4.944-6.825 10.027-13.562 14.666-20.591 3.639-5.513 5.806-11.695 6.126-18.377-4.047 2.259-12.651 19.351-19.049 30.123.18-2.65-.017-4.651.497-6.449 2.112-7.39 4.478-14.708 6.662-22.078.568-1.916.819-3.927.792-6.05-11.536 10.643-15.574 25.656-23.263 39.527-1.123-14.787 5.063-27.618 6.183-41.547-9.242 3.192-5.338 12.115-8.824 17.657 0-2.943-.576-8.001-.821-9.038-.539 1.327-1.309 2.608-1.578 3.988-1.567 8.061-3.036 16.141-4.501 24.222-1.873 10.331-4.646 20.293-11.476 28.634-13.826 16.885-38.522 18.07-52.832 2.708-10.8-11.594-12.454-34.199 1.836-45.678 3.72-2.988 7.315-6.283 10.313-9.969 2.359-2.9 4.075-6.487 5.361-10.028.666-1.832-.117-4.247-.49-6.355-.084-.476-1.185-.773-2.249-1.41l7.843-12.274-17.861 4.083c-.089-.237 9.46-7.032 9.424-7.373-4.971-.9-9.905-2.045-14.915-2.696-10.329-1.342-16.999-5.934-16.856-6.373 3.469-.205 6.951-.722 10.403-.564 16.895.775 31.572-5.36 45.356-14.308 1.835-1.191 3.337-2.896 4.993-4.362-.142-.264-13.734.388-20.388.978-.053-.268 6.737-2.935 10.186-4.001-.025-.149-2.038-.447-3.018-.447-.049-.156 12.875-6.469 12.856-6.922-3.399-.796-10.26-2.662-10.292-2.798 6.195-.976 18.573-3.428 18.567-3.678-2.28-.619-4.638-1.04-6.82-1.906-3.069-1.218-6.255-2.407-8.945-4.257-4.217-2.899-4.881-7.039-2.379-11.529 2.975-5.338 7.641-9.027 12.532-12.432 8.754-6.095 18.192-10.903 28.205-14.565 1.653-.604 2.524-1.208 2.817-3.318.374-2.691 1.596-5.396 2.99-7.782 2.093-3.582 4.322-7.188 7.075-10.262 9.079-10.141 11.098-22.014 9.308-34.969-.285-2.06-.609-4.115-.898-6.175-.027-.189 5.134 8.679 7.176 13.268.426-.061 2.63-14.428 3.541-21.584.126-.033 3.744 15.96 4.141 16.012 3.514-7.169 2.737-15.283 4.666-22.802.281-.035 2.193 8.485 2.917 13.09l3.852-4.415a9618.43 9618.43 0 0 0-.644 4.911c7.372-4.601 12.774-10.574 17.572-17.152-.158-.213-5.722 2.44-9.073 4.405 4.475-11.896 13.542-21.155 13.334-34.522-2.252 1.821-4.61 3.529-6.727 5.495-2.111 1.961-3.982 4.18-6.723 6.01l1.153-13.524c-1.782 1.178-2.749 1.679-3.551 2.373-2.82 2.44-3.488 2.323-5.348-.977-1.07-1.899-2.085-3.861-3.42-5.563-.48-.611-2.256-1.067-2.705-.699-2.608 2.143-4.572.871-6.665-.765-2.168-1.694-4.429-3.269-7.009-5.16l-1.544 7.806c-3.044-2.971-8.754-7.531-9.082-7.344 1.833 5.644 4.913 17.296 4.619 17.479-1.585-2.043-3.112-4.133-4.771-6.115-1.693-2.022-5.924-5.514-6.245-5.322l3.827 13.191c-4.789-3.036-13.436-7.663-13.749-7.435l7.19 22.597c-3.704-3.098-3.483-10.588-11.038-8.799-4.464 1.057-6.777 2.913-7.853 6.496l9.043 6.983c-.096.191-2.147.268-3.632.023 5.819 4.785 9.596 10.431 11.852 17.145 6.608 19.664-1.817 51.264-26.468 62.996a198.119 198.119 0 0 1-10.256 4.547c-1.895.774-3.92 1.231-6.162 1.329l9.1-5.962c-6.876-3.645-9.239-9.304-7.543-16.769.188.673.425 1.336.557 2.019.969 5.045 3.688 7.426 8.779 7.574 10.864.317 19.338-4.154 24.659-13.535 7.732-13.634 8.225-27.729.805-41.715-3.494-6.586-9.142-10.902-16.279-13.141-4.347-1.364-9.028.87-10.583 5.153-3.648 10.052-6.489 20.334-7.361 31.073-.37 4.551-.939 9.086-1.702 13.627-2.854-8.508-2.237-17.139-1.256-25.998-.878 1.796-1.844 3.556-2.619 5.395-5.869 13.918-9.078 28.495-10.614 43.471-.575 5.606-2.817 10.069-8.446 11.951-1.374.459-3.722.445-4.507-.395-.965-1.032-1.288-3.289-.918-4.773.386-1.546 1.695-3.102 3.01-4.131 3.712-2.905 5.703-6.622 5.796-11.247.128-6.343.032-12.691.032-19.258-.631.633-1.589 1.344-2.228 2.274-4.962 7.211-10.413 13.966-16.593 20.222-5.314 5.38-8.425 12.395-9.19 19.807-1.395 13.506-7.499 25.183-12.952 37.168-.558 1.227-1.27 2.387-1.948 3.556-.305.526-.704.998-1.098 1.548-1.268-2.882-1.082-5.439.806-10.423 1.276-3.367 2.634-6.704 3.603-10.374-8.848 3.346-16.386 8.47-22.883 15.324l10.57-1.737c-6.966 12.025-17.878 19.62-25.634 30.24l17.32-8.596c-7.534 8.087-16.388 14.86-21.253 25.458 7.234 1.751 11.645-2.923 17.04-5.877-.311 3.399-1.975 5.661-4.468 6.961-3.294 1.718-6.904 2.817-10.297 4.36-4.418 2.009-8.959 3.872-13.049 6.433-2.159 1.352-3.716 3.901-5.117 6.174-2.799 4.543-5.303 9.267-7.857 13.789h19.695c-.136.259-.217.706-.47.851-4.65 2.658-7.297 6.93-9.629 11.549-3.848 7.621-9.919 12.724-18.072 15.316a8.929 8.929 0 0 1-1.205.313c-.179.031-.381-.07-.686-.135 1.979-2.032 3.912-4.019 5.848-6.002 3.794-3.886 6.883-8.06 6.623-13.93-.082-1.85-.867-2.873-2.506-2.859-2.571.022-5.242.035-7.686.715-4.094 1.139-8.043 2.797-12.051 4.242-1.441.52-2.876 1.059-4.612 1.699 3.43-3.567 6.656-6.761 9.692-10.125 3.052-3.382 5.497-7.129 6.115-11.837.23-1.754-1.063-3.204-2.832-3.186-2.085.021-4.472-.193-6.09.765a203.636 203.636 0 0 0-17.104 11.339c-1.906 1.406-2.994 3.922-4.609 6.142-3.822-3.286-7.938-2.11-12.008-.201-8.051 3.777-14.438 9.821-20.799 15.801-1.257 1.182-1.201 3.761-1.827 5.964 7.442.989 11.658-4.322 17.627-6.103-1.264 3.627-3.594 6.087-6.425 7.562-7.264 3.782-14.753 7.131-22.165 10.626-2.724 1.285-5.536 2.395-8.209 3.776-1.432.739-2.655 1.884-3.805 3.595 2.719.228 5.438.45 8.156.687 1.139.099 2.278.321 3.4.39 6.203.382 2.565 4.789 1.61 5.408-2.108 1.366-4.58 2.695-7.013 2.938-7.343.732-14.735 1.007-22.114 1.331-8.08.355-12.798 5.404-16.44 11.778-1.823 3.19-.443 5.71 3.391 6.199 3.7.471 7.472.414 11.214.512 2.662.07 12.249-.007 12.249-.007-1.933.94-7.695 3.521-9.736 4.008-6.872 1.639-13.812 2.998-20.733 4.432-8.382 1.736-16.583 4.025-24.136 8.174-15.252 8.378-22.95 21.849-25.587 38.57-.822 5.208-1.13 10.497-1.689 15.901-3.108-.536-4.661-2.984-4.988-5.571-.594-4.697-1.638-11.013.17-18.795-25.155 8.543-45.877 22.423-62.872 43.138-.126.153.014.382.209.347 23.597-4.264 24.356-1.509 24.348-.994-1.923.555-10.724 2.365-12.653 2.765-13.779 2.861-26.1 12.786-34.591 30.3a988.078 988.078 0 0 1-2.426 4.959H0c.179-.513.38-1.014.631-1.489 10.195-19.321 23.461-36.343 39.007-51.623 23.176-22.781 49.857-40.48 79.041-54.587 6.544-3.163 13.056-6.502 19.172-10.404 3.878-2.473 7.594-5.687 10.344-9.349 8.492-11.309 18.918-20.416 30.235-28.707 16.434-12.041 32.616-24.428 49.114-36.379 16.988-12.307 35.002-23.175 54.003-32.065 10.214-4.779 19.856-10.859 29.317-17.047 6.552-4.286 10.851-10.638 12.655-18.359 3.362-14.391 12.362-25.216 22.054-35.68 12.289-13.267 23.064-27.577 31.098-43.922 4.378-8.908 10.332-16.969 17.609-23.735 17.005-15.81 29.421-34.641 38.539-55.871 4.334-10.09 10.632-18.771 19.78-25.246 12.195-8.631 25.843-11.698 40.312-9.581 10.959 1.604 21.712 4.683 32.507 7.309 9.172 2.231 9.364 2.293 13.715-6.168 3.329-6.473 6.5-13.028 9.855-19.487 1.291-2.486 2.885-4.817 4.363-7.204C559.162 4.99 567.902.686 578.634.138c3.817-.195 7.766-.283 11.476.466 5.824 1.176 8.665 4.887 8.18 10.774-.38 4.612-1.396 9.26-2.789 13.684-3.723 11.825-4.848 23.864-3.235 36.078.414 3.134 1.76 6.676 3.847 8.964 8.051 8.827 16.568 17.23 24.929 25.773 2.693 2.752 5.564 5.34 8.145 8.191 10.408 11.49 12.726 25.101 10.199 39.916zm-86.999-35.037c-1.951 1.576-3.194 4.03-4.758 6.085.334.332 4.359-1.467 6.052-2.678 1.684-1.205 3.288-2.577 5.11-3.521 1.763-.914 3.76-1.377 5.654-2.037.061.175-7.868 5.864-7.497 5.75 9.68-2.985 18.559-7.561 25.796-14.667 8.336-8.185 9.208-16.332 3.63-26.594-1.341-2.467-2.73-4.912-3.981-7.424-3.117-6.26-4.354-12.906-2.597-19.7 1.187-4.59 2.999-9.072 4.997-13.387 2.69-5.809 5.054-11.683 5.337-18.123.348-7.898-3.899-10.767-11.745-7.771 5.375 4.355 5.158 9.917 3.934 15.414-1.194 5.362-2.931 10.617-4.664 15.841-3.529 10.636-3.162 21.062 1.22 31.366 1.18 2.774 2.261 5.589 3.443 8.362 2.346 5.506 1.271 10.296-3.371 13.967-4.152 3.284-8.608 6.183-12.925 9.258-4.57 3.256-9.279 6.34-13.635 9.859zm-27.316-.089c.211.209 5.542-2.041 7.997-3.375.122.176-.992 7.482-2.842 9.589 3.057-.554 15.572-7.578 27.828-27.721-8.137 3.315-14.392 11.522-19.676 15.682.285-1.596.319-3.322.917-4.824 1.458-3.66 2.923-7.357 4.839-10.785 5.251-9.397 8.858-19.314 9.493-30.085.374-6.344.09-12.727.072-19.094-.001-.266-.336-.379-.495-.166-.755 1.015-2.01 3.67-2.225 6.861-.335 4.984-.372 9.991-.757 14.972-.296 3.835-.903 7.661-3.321 10.229-.553-7.57-2.284-23.041-2.584-23.019-2.965 6.367-4.767 14.992-3.376 18.613.561-1.127 1.616-3.205 2.423-4.826.379 8.079-3.025 14.555-4.664 21.494l4.646-6.312c-1.679 10.405-6.606 19.013-13.463 26.64-1.732 1.928-3.215 4.079-4.812 6.127zm-49.409 56.773c.507-.078 1.014-.151 1.52-.235 8.101-1.341 16.182-3.275 24.457-1.569 8.182 1.687 14.434-1.03 19.988-7.199 3.197-3.551 7.436-6.375 11.645-8.748 5.049-2.846 9.626-1.557 12.429 3.145 1.561 2.619 2.918 5.689 3.215 8.67.85 8.525 3.827 16.086 8.7 23.027.949 1.352 1.661 2.884 2.387 4.38 2.422 4.99 2.784 5.141 7.998 2.919.764-.326 1.482-.758 2.244-1.092 1.773-.778 2.179-1.823 1.292-3.696-.566-1.195-1.088-3.217-.49-4.027 4.02-5.44 2.397-10.682.854-16.583-1.489-5.694 2.234-8.865 2.947-10.13 2.805-4.975 1.302-9.367-4.056-11.126-2.371-.779-2.952-1.698-2.446-4.19.933-4.596-2.495-7.452-6.926-6.031-1.676.538-3.289 1.283-4.904 1.995-2.753 1.213-4.11-1.337-5.963-2.368-.289-.161.356-2.249.773-3.37.64-1.724 1.81-3.638-.26-4.919-4.408-2.729-10.023-1.502-12.857 2.704-1.64 2.435-3.599 2.76-5.814 1.177-1.412-1.01-2.597-2.372-3.764-3.683-1.658-1.863-3.05-3.987-4.837-5.707-3.012-2.899-5.148-2.441-7.71.781-1.649 2.074-3.511 4.622-5.807 5.404-4.561 1.555-7.004 4.222-7.589 8.854-.017.136-4.686-.902-8.938 2.189-1.85 1.345-3.673 2.741-5.38 4.258-3.644 3.236-5.359 7.141-3.604 12.008 1.097 3.042-.21 4.764-2.725 6.426-2.527 1.667-6.573 6.469-6.379 6.736zm-18.642 85.468c-.007-7.682.034-15.372-.323-23.042-.158-3.386-1.116-6.754-1.931-10.076-.207-.842-1.254-2.133-1.921-2.067-3.841.379-3.97 6.946-3.332 9.327 2.255 8.416.973 16.104-2.672 23.899-1.933 4.134-3.212 8.907-3.405 13.45-.342 8.085.277 16.218.654 24.324.714 15.359-1.072 30.233-9.369 43.37-2.654 4.203-6.995 7.422-11.803 9.25-4.97 1.89-12.64.678-15.303-2.375 2.292-.225 4.565-.475 6.844-.667 12.347-1.038 22.617-12.2 23.042-25.239-4.153 5.499-7.996 11.199-15.826 12.821 5.486-13.065 11.729-25.363 10-40.554l-6.836 6.615c-1.747-8.404-2.575-15.61 1.405-22.571 2.699-4.72 4.044-9.871 3.759-15.625-1.262 1.711-2.632 3.354-3.766 5.146-4.278 6.76-8.534 13.535-12.648 20.396-.608 1.014-.926 2.75-.478 3.748 1.478 3.29.13 5.598-1.997 7.84-3.584 3.776-7.199 7.523-10.722 11.355-7.112 7.735-11.215 16.397-10.268 27.402 1.462 16.986 12.443 26.702 28.291 23.415 12.946-2.685 23.289-9.808 26.543-23.119 4.089-16.73 7.7-33.661 7.217-51.148-.207-7.491.77-14.955 3.953-21.946.547-1.203.893-2.614.892-3.929zm45.006-11.625c7.625 12.252 20.641 15.284 32.88 7.59 5.572-3.503 9.786-8.356 13.384-13.793 2.071-3.128 3.102-3.557 6.192-1.53 2.125 1.395 3.99 3.312 5.636 5.276 1.795 2.143 3.132 4.663 4.813 6.91.717.958 1.803 1.641 3.148 2.824.077-9.98-8.278-13.77-12.258-20.602l9.903 4.275c-2.26-4.598-4.999-7.432-9.356-8.034-3.803-.526-6.185 1.936-8.146 4.785-2.596 3.77-4.986 7.689-7.723 11.352-3.153 4.219-7.552 6.435-12.806 6.878-9.919.837-23.752-9.648-25.587-19.426-.187-.996-.025-2.057-.025-3.088l.955-.223c1.545 2.538 3.006 5.131 4.648 7.604 7.95 11.979 24.635 11.66 31.774-.728 6.967-12.089 9.407-25.229 8.208-39.077-.098-1.133-2.371-9.437-5.892-4.105-1.708 2.586-3.992 9.942-4.263 10.583-.255-.071.662-13.017 1.135-19.436.334-4.54.38-9.114.254-13.664-.027-.971-1.218-2.481-2.119-2.691-.841-.196-2.39.76-2.955 1.64-1.392 2.17-2.72 4.484-3.501 6.923-2.808 8.768-5.601 19.43-10.773 35.876-.062.195-.344.183-.384-.018-1.013-5.148-2.322-.413-3.596 2.508-.088.203-.393.131-.38-.09.4-6.707 3.856-16.777-.702-23.694-.888 1.884-3.151 6.476-3.667 15.002-.241 3.982-.549 8.09-3.414 11.836-1.51-1.252-2.959-2.25-4.158-3.491-2.315-2.395-4.431-4.981-6.731-7.391-5.458-5.717-10.827-11.53-16.519-17.006-3.861-3.715-8.591-4.125-13.676-2.347-9.793 3.424-19.661 6.635-29.483 9.975-3.75 1.275-7.285 3.14-8.555 7.113-.588 1.84-.514 4.686.563 6.04 1.064 1.337 3.773 1.844 5.756 1.832 1.857-.011 3.741-1.097 5.555-1.85 11.448-4.754 22.392-5.535 32.178 3.81 3.335 3.185 6.766 6.268 10.528 9.744-2.989-7.03-6.086-13.436-11.465-18.438-4.355-4.049-9.513-5.564-15.284-4.215-4.037.944-7.955 2.39-11.948 3.537-2.781.799-5.6 1.503-8.906-.418 1.17-.947 6.177-3.664 7.16-4.094 6.429-2.813 11.808-4.265 20.079-6.047 11.246-2.422 17.742 1.357 22.701 11.712 1.476 3.083 2.641 6.329 3.771 9.562 3.637 10.415 7.172 20.862 13.051 30.309zm-11.967 107.117c.522-2.614-.687-5.458 2.662-10.146 6.034-8.448 10.939-14.832 17.165-23.129 8.494-11.319 17.856-22.026 24.187-34.809 2.383-4.812 5.615-8.563 9.905-11.772 3.589-2.685 6.593-6.153 9.856-9.274-.272-.256-18.634.624-28.846 19.571-3.222 5.979-7.445 11.562-11.861 16.78-11.991 14.169-23.799 28.436-32.249 45.106-3.832 7.559-7.182 15.317-6.323 24.115.663 6.798 5.248 11.097 12.068 10.948 7.964-.174 14.601-3.717 19.425-9.841 9.525-12.092 7.103-25.783 4.803-39.848-11.139 4.009-15.775 13.243-20.792 22.299zm83.794-59.329c-4.8-9.095-10.043-13.023-11.269-13.569-.096-.043-.188.063-.135.154l7.753 13.426c-.353.359-7.278-3.123-10.672-4.849-.983-.5-2.285-.373-3.44-.533.03 1.387-.281 2.904.188 4.122.45 1.171 1.556 2.254 2.638 2.988 3.09 2.098 6.324 3.984 9.481 5.986 1.06.672 2.056 1.444 3.082 2.171-.105.22-6.936-.055-10.63-.454 1.002 2.676 2.212 7.164 2.018 7.275-4.266-2.699-12.736-7.306-14.864-8.144-.168-.066-.317.128-.214.277l10.693 15.532c.126.184-.075.415-.271.31-2.703-1.447-11.967-6.648-13.887-7.422-.117-.047-.223.09-.151.194 2.799 4.038 5.648 8.044 8.376 12.129 4.046 6.057 5.586 10.815 4.691 14.24-5.153-4.434-8.053-11.453-15.67-13.217.311 2.562.934 4.912 1.865 7.134.92 2.195 2.226 4.225 3.222 6.392.912 1.984.566 3.742-1.284 5.175-8.907-7.531-10.868-18.4-14.616-28.357-1.242 7.439-.594 14.55 2.269 21.437 1.3 3.126 2.431 6.336 1.226 10.726-.686-1.01-1.085-1.47-1.345-1.999-2.926-5.954-5.934-11.871-8.669-17.912-.695-1.536-.681-3.474-.678-5.227.003-2.407.306-4.814.48-7.221-1.538 1.163-2.519 2.476-3.162 3.938-3.457 7.865-3.937 16.166-2.735 24.489a37.152 37.152 0 0 0 3.667 11.468c2.688 5.229 7.317 6.445 12.731 4.135 1.047-.447 2.094-.954 3.027-1.599 5.478-3.785 10.961-7.566 16.369-11.449 6.254-4.491 10.981-10.138 13.012-17.757 2.433-9.125 5.024-18.21 7.27-27.381.508-2.085.577-4.821-.366-6.608zm54.935-152.305c-2.207-.579-4.467-.958-7.149-1.521 2.5-1.051 4.613-1.672 6.419-2.791 1.204-.746 2.834-2.301 2.716-3.311-.151-1.284-1.668-2.777-2.972-3.472-2.139-1.139-4.581-1.709-6.953-2.538.214-.441.323-.727.481-.982 2.564-4.143 2.194-5.051-2.45-5.975l-6.812-1.354 7.574-6.835-10.196-4.685 3.207-3.549c-3.824-5.846-5.507-6.192-11.112-2.528-1.136.743-2.355 1.36-4.167 2.396 2.022-3.278 4.759-5.787 4.82-8.359.06-2.543-4.66-7.402-4.97-7.239-.034.493-.113.988-.097 1.479.36 10.914-4.326 18.462-14.564 22.693-3.618 1.495-6.975 3.712-10.27 5.875-3.098 2.034-4.763 5.053-3.901 8.846.607 2.672 1.677 5.239 2.645 8.172 4.425-2.779 12.602-7.361 13.049-6.777l-9.949 9.201c.205.363 3.118-.132 5.099-.711-1.735 2.501-3.002 3.527-4.756 7.093 4.32.201 9.414-5.266 12.028-6.943 2.06-1.322 7.063-2.741 7.4-2.373-3.481 5.905-10.214 9.745-11.767 17.756 9.109-1.078 10.287-9.33 14.626-14.272.495.306-3.822 12.085-6.099 17.69.821-.179 3.704-.46 3.875-.023-4.315 2.519-8.581 5.13-12.97 7.512a3.469 3.469 0 0 0-1.777 3.5c.468 3.577.816 7.183.965 10.786.466 11.304-2.12 15.436-12.33 20.214-1.394.652-2.735 1.416-4.156 2.192a1.177 1.177 0 0 0-.561 1.392c.469 1.457.869 2.762 1.346 4.038 2.435 6.524 5.03 12.992 7.326 19.564 2.475 7.083 4.663 14.266 4.16 21.931-.435 6.635-3.534 11.405-9.823 13.917-.64.255-1.266.545-1.628.702l13.17 9.261c.186.131.058.423-.163.371-2.767-.652-10.914-3.02-11.072-2.735 2.946 5.848 9.663 7.445 14.777 12.089h-11.343c3.9 8.277 6.95 9.318 14.481 5.009a21.1 21.1 0 0 0 3.166-2.223c2.888-2.452 5.094-5.242 2.741-8.983 3.667-1.024 7.764-1.203 8.726-5.674.68-3.162-2.026-4.188-4.228-5.35 2.114-1.267 4.348-2.243 6.134-3.751 3.893-3.288 3.062-7.944-1.521-9.579 7.529-8.742 8.479-17.67 2.883-27.479-8.299 3.515-16.652 5.804-23.721-2.227-3.699-4.203-3.941-13.739-1.344-17.395.773 3.383 1.427 7.15 2.525 10.783 1.017 3.364 3.484 5.197 7.106 5.665 6.229.803 11.176-1.685 15.555-5.699 5.803-5.319 9.592-12.01 12.537-19.192 3.981-9.709 6.732-19.693 6.01-30.344-.326-4.802-2.124-6.451-6.929-6.466-.941-.003-1.881 0-3.58 0 7.407-3.528 13.891-5.28 19.417 2.202 1.041-4.512 1.983-8.242 2.749-12.007.906-4.441.016-5.833-4.383-6.987z"/>
</svg>
